<svg width="40" height="40" viewBox="0 0 40 40" fill="none" xmlns="http://www.w3.org/2000/svg">
<circle cx="20" cy="20" r="17.7143" fill="#CFF3E3" stroke="white" stroke-width="3.42857"/>
<path fill-rule="evenodd" clip-rule="evenodd" d="M20.3527 26.7029C19.0849 26.6053 18.1127 26.2396 17.4361 25.6057C16.7595 24.9718 16.3725 24.088 16.275 22.9543H17.8292C17.9877 24.4172 18.8289 25.2278 20.3527 25.3863V20.6503L20.1698 20.6137C19.5969 20.5162 19.091 20.3791 18.6521 20.2023C18.2132 20.0255 17.8414 19.7939 17.5367 19.5074C17.2319 19.221 17.0003 18.8644 16.8418 18.4377C16.6833 18.011 16.6041 17.5051 16.6041 16.92C16.6041 16.4446 16.6925 16.0088 16.8692 15.6126C17.046 15.2164 17.2959 14.869 17.619 14.5703C17.942 14.2716 18.3352 14.0309 18.7984 13.848C19.2616 13.6651 19.7797 13.5432 20.3527 13.4823V11.9463H21.5595V13.464C22.23 13.525 22.7938 13.6651 23.251 13.8846C23.7081 14.104 24.0799 14.3691 24.3664 14.68C24.6529 14.9909 24.8692 15.3291 25.0155 15.6949C25.1618 16.0606 25.2654 16.4202 25.3264 16.7737L23.827 17.048C23.7538 16.7432 23.6593 16.4629 23.5435 16.2069C23.4277 15.9509 23.2845 15.7253 23.1138 15.5303C22.9432 15.3352 22.7298 15.1737 22.4738 15.0457C22.2178 14.9177 21.9131 14.8293 21.5595 14.7806V19.3337L21.8155 19.3703C22.998 19.5531 23.894 19.931 24.5035 20.504C25.1131 21.077 25.4178 21.9364 25.4178 23.0823C25.4178 23.5455 25.3386 23.9874 25.1801 24.408C25.0216 24.8286 24.7809 25.2034 24.4578 25.5326C24.1348 25.8617 23.7325 26.1299 23.251 26.3371C22.7694 26.5444 22.2056 26.6724 21.5595 26.7211V28.44H20.3527V26.7029ZM21.5595 25.4046C22.3397 25.3192 22.9066 25.0663 23.2601 24.6457C23.6136 24.2251 23.7904 23.704 23.7904 23.0823C23.7904 22.8507 23.763 22.6191 23.7081 22.3874C23.6532 22.1558 23.5496 21.9394 23.3972 21.7383C23.2449 21.5371 23.0346 21.3634 22.7664 21.2171C22.4982 21.0709 22.1508 20.9611 21.7241 20.888L21.5595 20.8697V25.4046ZM18.643 15.5211C18.966 15.125 19.5359 14.8781 20.3527 14.7806V19.1143C19.9138 19.029 19.5512 18.9162 19.2647 18.776C18.9782 18.6358 18.7527 18.4712 18.5881 18.2823C18.4235 18.0933 18.3108 17.88 18.2498 17.6423C18.1889 17.4046 18.1584 17.1394 18.1584 16.8469C18.1584 16.3592 18.3199 15.9173 18.643 15.5211Z" fill="#10C176"/>
</svg>
